# xmcd
#
# Track frame offsets:
#	151
#	13192
#	28325
#	41685
#	56182
#	74096
#	84687
#	97712
#	112212
#	130211
#	147351
#	163452
#
# Disc length: 2505 seconds
#
# Revision: 0
# Processed by: cddbd v1.4PL0 Copyright (c) Steve Scherf et al.
# Submitted via: dBpowerAMP V4.0
#
DISCID=ba09c70c
DTITLE=Dwight Yoakam - Under The Covers
DYEAR=1900
DGENRE=Country
TTITLE0=Claudette
TTITLE1=Train In Vain
TTITLE2=Tired Of Waiting For You
TTITLE3=Good Time Charlie's Got The Blues
TTITLE4=Baby Don't Go (with Sheryl Crow)
TTITLE5=Playboy
TTITLE6=Wichita Lineman
TTITLE7=Here Comes The Night
TTITLE8=The Last Time
TTITLE9=Things We Said Today
TTITLE10=North To Alaska
TTITLE11=T For Texas
EXTD=
EXTT0=
EXTT1=
EXTT2=
EXTT3=
EXTT4=
EXTT5=
EXTT6=
EXTT7=
EXTT8=
EXTT9=
EXTT10=
EXTT11=
PLAYORDER=
